<svg xmlns="http://www.w3.org/2000/svg" width="1100" height="464" viewBox="0 0 1100 464"><rect width="100%" height="100%" fill="#FFFFFF"/><text x="30" y="34" font-family="Arial" font-size="24" font-weight="700" fill="#12344D">Schema-only 总准确率（技术语言 / PostGIS / CQ-125）</text><line x1="260" y1="50" x2="1020" y2="50" stroke="#CBD5E1"/><text x="244" y="86" text-anchor="end" font-size="20" fill="#263238">Gemini</text><rect x="260" y="62" width="547" height="30" rx="4" fill="#1976A3"/><text x="819" y="85" font-size="20" fill="#263238">72.0%</text><text x="244" y="140" text-anchor="end" font-size="20" fill="#263238">Gemma 31B</text><rect x="260" y="116" width="541" height="30" rx="4" fill="#6B7280"/><text x="813" y="139" font-size="20" fill="#263238">71.2%</text><text x="244" y="194" text-anchor="end" font-size="20" fill="#263238">DeepSeek</text><rect x="260" y="170" width="529" height="30" rx="4" fill="#1976A3"/><text x="801" y="193" font-size="20" fill="#263238">69.6%</text><text x="244" y="248" text-anchor="end" font-size="20" fill="#263238">Gemma 26B</text><rect x="260" y="224" width="523" height="30" rx="4" fill="#6B7280"/><text x="795" y="247" font-size="20" fill="#263238">68.8%</text><text x="244" y="302" text-anchor="end" font-size="20" fill="#263238">Qwen 3.8</text><rect x="260" y="278" width="511" height="30" rx="4" fill="#1976A3"/><text x="783" y="301" font-size="20" fill="#263238">67.2%</text><text x="244" y="356" text-anchor="end" font-size="20" fill="#263238">Qwen 35B</text><rect x="260" y="332" width="492" height="30" rx="4" fill="#6B7280"/><text x="764" y="355" font-size="20" fill="#263238">64.8%</text><text x="244" y="410" text-anchor="end" font-size="20" fill="#263238">Qwen 27B</text><rect x="260" y="386" width="462" height="30" rx="4" fill="#6B7280"/><text x="734" y="409" font-size="20" fill="#263238">60.8%</text></svg>